<svg xmlns="http://www.w3.org/2000/svg" aria-hidden="true" style="position:absolute;width:0;height:0;overflow:hidden">
    <defs>
        <symbol id="icon-antenna" viewBox="0 0 32 32">
            <path fill="#212121"
                d="m30.8 22.1-8.5-8.5 1-4.6.7.1a2.2 2.2 0 1 0-2-1.4l-5 .6L9 .2a.5.5 0 0 0-.4-.2c-.1 0-.3 0-.4.2L6.7 1.7c-.2.2-.2.5 0 .7l.8.8A15 15 0 0 0 10.2 21v6.7H3.6a2.7 2.7 0 0 0-2.6 2.7v1c0 .4.2.6.5.6h24.5c.3 0 .6-.2.6-.5v-1.1c0-1.5-1.2-2.7-2.7-2.7h-6.4V25a15 15 0 0 0 10-1.5l1 .9.3.1.4-.1 1.5-1.5c.2-.3.2-.6 0-.8zM23.3 6.2a1 1 0 1 1 .7 1.9 1 1 0 0 1-.7-1.9zM22 9.7l-.6 3-1.1-1.2L22 9.7zm-.6-.9-1.9 2L18 9.2l3.4-.5zm2.6 20c.9 0 1.6.7 1.6 1.6v.5H2.1v-.5c0-.9.8-1.6 1.6-1.6H24zm-7.5-2.1v1h-5.3v-1h5.3zm-5.3-1.1v-4c0-1.3 1.2-2.4 2.7-2.4s2.6 1 2.6 2.3v4.1h-5.3zm6.4-1.7v-2.4c0-1.8-1.7-3.4-3.7-3.4-1.4 0-2.6.7-3.3 1.8-4-4.3-5-10.6-2.3-15.9L27 22.7a13.8 13.8 0 0 1-9.3 1.2zm11.3-.7L7.9 2l.7-.7 8 8 13 13.2-.7.7z"
                style="fill:var(--color1, #212121)" />
            <path fill="#2196f3"
                d="M13.9 20.3a1.6 1.6 0 1 0 0 3.2 1.6 1.6 0 1 0 0-3.2zm.3 2-.3.1a.5.5 0 0 1 0-1 .5.5 0 0 1 .3.8z"
                style="fill:var(--color2, #2196f3)" />
        </symbol>
        <symbol id="icon-astronaut" viewBox="0 0 32 32">
            <path fill="#2196f3"
                d="M32 4.5c0-.2-.3-.3-.5-.3l-1.9-.3-.8-1.7c-.2-.4-.8-.4-1 0L27 3.9l-2 .3a.5.5 0 0 0-.2.9L26 6.4l-.3 2c0 .1 0 .3.2.4.2.2.4.2.6 0l1.7-.8 1.7.9a.5.5 0 0 0 .8-.6l-.3-1.9 1.3-1.3c.2-.2.2-.4.2-.6zM29.5 6c-.1 0-.2.2-.1.4l.1 1.1-1-.5a.5.5 0 0 0-.4 0l-1 .5.1-1-.1-.5-.8-.8 1.1-.2c.2 0 .3-.1.4-.3l.5-1 .5 1c0 .2.2.3.4.3l1.1.2-.8.8zM26.1 20.5h-1v1h1v-1zM26.1 22.7h-1v1h1v-1zM27.2 21.6h-1v1h1v-1zM25 21.6h-1v1h1v-1zM22.4 26.4h-1v1h1v-1zM22.4 28.5h-1v1h1v-1zM23.5 27.5h-1.1v1h1v-1zM21.3 27.5h-1v1h1v-1zM16 24.3h-1v1h1v-1zM16 26.4h-1v1h1v-1zM17 25.3h-1v1h1v-1zM15 25.3h-1.1v1h1v-1zM5.9 6.1H4.8v1h1v-1zM5.9 8.3H4.8v1h1v-1zM7 7.2H5.8v1h1v-1zM4.8 7.2h-1v1h1v-1z"
                style="fill:var(--color2, #2196f3)" />
            <path fill="#212121"
                d="M24.7 14.2c-.3-.4-.7-.7-1.2-.7-.5-.1-1 0-1.3.3l-1.3 1-1.9 1.4-1.3-.6a7 7 0 0 0-2.9-13.2A7 7 0 0 0 9 13H6l-3.2 1.6-2 1a1.8 1.8 0 0 0 1 3.2c.3 0 .6 0 .8-.2L4 18l2.3-1.2h1.3l-5.4 5.4-1.3 1.3a1.7 1.7 0 0 0 0 2.4 1.7 1.7 0 0 0 2.3 0l1.3-1.3 1.8-1.3.9.9-1.8 1.7-1.3 1.4a1.7 1.7 0 0 0 0 2.3 1.7 1.7 0 0 0 2.3 0l3.5-3.4 1-1 5.2-5.7 3.5.5h.2l.1-.1 3.3-2.1 1.3-1.3c.7-.6.8-1.6.2-2.3zM2.1 17.8h-.5a.7.7 0 0 1-.2-1.2l1.3-.7.4 1.3-1 .6zm3.5-1.9-1.5.8-.5-1.2 2-1v1.4zm15.1-6.6c0 1-.2 1.8-.6 2.6l-4.2-2c0-.5-.3-1-.7-1.3l1.4-4.9c2.4.8 4.1 3 4.1 5.6zM9 9.3a5.9 5.9 0 0 1 6.7-5.8L14 8.3a1.9 1.9 0 1 0 0 3.7c.7 0 1.3-.4 1.6-1l3.9 1.8A5.9 5.9 0 0 1 8.9 9.3zm6 .8a.8.8 0 0 1-1.6 0 .8.8 0 0 1 1.6 0zm-12.4 15c-.3.3-.7.3-.9 0a.6.6 0 0 1 0-.8l1-1 .8.9-1 1zM5.7 29c-.3.2-.6.2-.9 0a.6.6 0 0 1 0-.9l1-1 .8 1-1 .9zm3.5-3.5-1.8 1.8-.9-.9 1.8-1.7.1-.2v-.5h-.1l-1.6-1.7h-.1l-.1-.1H6l-1.8 1.4-.9-1 2.4-2.3 4.4 4.3-1 1zm6.8-7a.6.6 0 0 0-.4 0v.1l-4.8 5.2-4.3-4.2 2.8-2.9a.5.5 0 0 0-.4-.9H6.7v-1.6H10a7 7 0 0 0 6.2 2l.1.1 2.5 1 .1.7.2 1-3-.5zm4 .2-.3-1.6 1.5-1 .9 1.2-2 1.4zm3.8-2.9-.9.8-.9-1.2.8-.6c.2-.2.4-.2.6-.2a.7.7 0 0 1 .4 1.2z"
                style="fill:var(--color1, #212121)" />
            <path fill="#212121"
                d="m13.6 18.5-2.1-2a.5.5 0 0 0-.8 0l-2.1 2a.5.5 0 0 0 0 .8l2.1 2.1a.5.5 0 0 0 .8 0l2.1-2.1a.5.5 0 0 0 0-.8zm-2.5 1.8-1.4-1.4 1.4-1.4 1.4 1.4-1.4 1.4zM17.2 5l-.3 1.1s1.7.5 1.7 2.2h1.1c0-2-1.7-3-2.5-3.2zM19.7 9.3h-1v1h1v-1z"
                style="fill:var(--color1, #212121)" />
        </symbol>
        <symbol id="icon-clock" viewBox="0 0 32 32">
            <path fill="#212121"
                d="M31.3 15.3a15.3 15.3 0 1 0-19.8 14.6h.4l.2-.4 4-12.3a2 2 0 1 0-1-3.6l-5-5.1a.6.6 0 0 0-1 .9l5.2 5c-.4.9-.2 1.8.5 2.4l-3.7 11.7a14 14 0 1 1 10.6-.4l-.4-1.9a.6.6 0 0 0-1-.3l-3.9 3.4a.6.6 0 0 0 .2 1.1l5 1.6a.6.6 0 0 0 .8-.8l-.4-1.8c5.6-2.4 9.3-8 9.3-14.1zM16 14.7a.6.6 0 1 1 0 1.2.6.6 0 0 1 0-1.2zm2 14.8 2.3-2 .6 3-2.8-1z"
                style="fill:var(--color1, #212121)" />
            <path fill="#2196f3"
                d="M15.4 3.2v1.3a.6.6 0 1 0 1.2 0V3.2a.6.6 0 0 0-1.2 0zM3.9 14.7a.6.6 0 0 0 0 1.2h1.3a.6.6 0 1 0 0-1.2H3.9zM28.1 16a.6.6 0 1 0 0-1.3h-1.3a.6.6 0 0 0 0 1.2h1.3z"
                style="fill:var(--color2, #2196f3)" />
        </symbol>
        <symbol id="icon-diagram" viewBox="0 0 32 32">
            <path fill="#2196f3"
                d="M15 15h1v4.8h-1V15zM19.2 17.1h1v2.7h-1V17zM10.7 18.7h1v1h-1v-1zM7.5 18.2h1v1.6h-1v-1.6z"
                style="fill:var(--color2, #2196f3)" />
            <path fill="#212121"
                d="M1.6 28.3h25.6c.9 0 1.6-.7 1.6-1.6v-2.1c0-1-.7-1.6-1.6-1.6h-.5V9.7l3-2.9a1.6 1.6 0 1 0-.8-.8l-2.2 2.2V7c0-1-.8-1.6-1.6-1.6H3.7c-.9 0-1.6.7-1.6 1.6v16h-.5c-.9 0-1.6.7-1.6 1.6v2c0 1 .7 1.7 1.6 1.7zM30.4 4.8a.5.5 0 1 1 0 1.1.5.5 0 0 1 0-1zM3.2 7c0-.3.2-.6.5-.6h21.4c.2 0 .5.3.5.6v2.2l-1 1V8c0-.3-.3-.5-.6-.5H4.8c-.3 0-.5.2-.5.5v13.4c0 .3.2.5.5.5H24c.3 0 .5-.2.5-.5v-9.7l1-1V23H3.3V7zM8 13.9a1.6 1.6 0 1 0 1.1 2.7l1.9 1 .6-.1 4-4.5 3.8 3 .7-.1 3.4-3.2v8.1H5.3V8.6h18.2v2.6l-3.8 3.6-4-3a.5.5 0 0 0-.6.1l-4 4.5-1.5-.7v-.2c0-.9-.7-1.6-1.6-1.6zm.5 1.6a.5.5 0 1 1-1 0 .5.5 0 0 1 1 0zm3.2 8.5h5.4v.6c0 .3-.3.5-.6.5h-4.2a.5.5 0 0 1-.6-.5V24zm-10.6.6c0-.3.2-.6.5-.6h9v.6c0 .8.8 1.6 1.7 1.6h4.2c1 0 1.6-.8 1.6-1.6V24h9c.4 0 .6.3.6.6v2c0 .4-.2.6-.5.6H1.6a.5.5 0 0 1-.5-.5v-2.1z"
                style="fill:var(--color1, #212121)" />
        </symbol>
        <symbol id="icon-envelope" viewBox="0 0 39 32">
            <path
                d="M35.7 2.4h-32C1.7 2.4 0 4.1 0 6.1v22.2c0 2 1.7 3.7 3.7 3.7h32c2 0 3.7-1.7 3.7-3.7V6c0-2-1.7-3.7-3.7-3.7zm0 2.5h.5L19.7 19.4 3.2 5l.5-.1h32zm0 24.6h-32c-.7 0-1.2-.6-1.2-1.2V7.6l16.4 14.2c.2.2.5.3.8.3s.6 0 .8-.3L36.9 7.6v20.7c0 .7-.5 1.2-1.2 1.2z" />
        </symbol>
        <symbol id="icon-facebook" viewBox="0 0 32 32">
            <path
                d="M21.3 5.3h3v-5C23.6.1 22 0 20 0c-4.2 0-7.1 2.6-7.1 7.5V12H8.2v5.7H13V32h5.7V17.7h4.5l.7-5.7h-5.2V8c0-1.6.4-2.7 2.7-2.7z" />
        </symbol>
        <symbol id="icon-fifth-customer" viewBox="0 0 43 32">
            <path
                d="m3.2 26.4.3.6-.1.5-.3.4c-.3.2-.7.3-1.1.3H0V24h2c.3 0 .7 0 1 .2l.3.4c.1.1 0 .3 0 .4.1.3 0 .5-.1.7a1 1 0 0 1-.6.3c.2 0 .5.2.6.4zM1 25.7h.8l.6-.1.1-.2c.1 0 0-.1 0-.2V25l-.1-.2a.9.9 0 0 0-.6-.2H1v1.1zm1.5 1.7.1-.2v-.5l-.1-.2a1 1 0 0 0-.6-.2H.9v1.2h.9l.6-.1zM7.2 28.2l-1-1.7h-.5v1.7h-1V24h1.8c.5 0 1 0 1.3.3.2.3.4.6.4.9s-.1.6-.3.9l-.8.4 1.1 1.7h-1zM5.7 26h.8c.5 0 .8-.2.8-.7A.6.6 0 0 0 7 25a.9.9 0 0 0-.6-.2h-.8V26zM12.3 27.3h-1.9l-.3.9H9l1.7-4.2h1l1.8 4.2h-1l-.3-.9zm-.3-.6-.7-1.8-.6 1.8H12zM18.6 28.2h-1l-2-2.9v2.9h-.9V24h1l2 2.9v-3h.9v4.3zM23.9 27.2a2 2 0 0 1-.9.7 3 3 0 0 1-1.3.3h-1.6V24h1.6c.5 0 1 0 1.3.2.4.2.7.4.9.8a2.3 2.3 0 0 1 0 2.2zm-1.1-.1c.3-.3.4-.7.4-1s-.1-.8-.4-1c-.3-.3-.7-.4-1.2-.4H21v2.7h.6c.5 0 .9 0 1.2-.3zM12.8.5s12 4.1 11.7 10v10.1s-12-4.1-11.7-10V.6zM35 18.3c2.3-1.5 4.9-2.3 7.6-2.6v-3.1a15.3 15.3 0 0 0-7.6 5.7z" />
            <path d="M33.7 19.2c1.8-3.4 5-6 8.9-7.3V3S25.6 8.6 26 17.1v14.3l2-.8v-1.4c.4-4 2.4-7.5 5.7-10z" />
            <path
                d="m32 24.5.7-3a13.2 13.2 0 0 0-3.6 8.7l3.2-1.5c-.3-1.4-.3-2.8-.2-4.2zM32.8 24.6a13 13 0 0 0 .2 3.7c4.6-2.5 9.8-6.4 9.6-11.1v-.5c-3.3.4-6.4 1.7-8.8 3.8-.6 1.3-1 2.7-1 4z" />
        </symbol>
        <symbol id="icon-first-customer" viewBox="0 0 28 32">
            <path
                d="M4 0 9 4.5H0v22h23.1V18l4.8 4.6V0H4.1zm19 17.5L9.3 4.7H23v12.8zm-4.3 5.7h-15V8.5h1v13.7h14v1zM7.2 29.3l-.5 1.2-.6-1.2h-.5l.9 1.6v.9h.4v-1l.8-1.5h-.5zm.7 2.5.2-.6h1l.2.6h.4l-1-2.5h-.3l-1 2.5H8zm.7-2 .3 1h-.7l.4-1zm2.2 1v.3l.1.5.6.2c.2 0 .4 0 .6-.2l.2.2h.4l-.3-.5.2-.7h-.4v.5l-.5-.6.1-.1.3-.3v-.3l-.1-.3a.6.6 0 0 0-.5-.2c-.1 0-.3 0-.4.2l-.2.4v.3l.3.3-.4.3zm1.1.5-.4.2-.3-.1V31l.1-.3.6.5zm-.4-1-.2-.4v-.2h.4l.1.2-.1.2-.2.2zm3.9 1.3.3-.6h-.4l-.2.3-.4.2-.4-.2a1 1 0 0 1-.1-.6v-.3l.1-.5c.1-.2.3-.2.5-.2h.3l.2.4h.4l-.3-.6c-.2-.2-.4-.2-.6-.2a1 1 0 0 0-.9.5l-.1.7v.8c0 .2.3.3.4.4l.5.1c.3 0 .5 0 .7-.2zm2.5-.4.1-.6v-.1l-.1-.6a1 1 0 0 0-1-.6 1 1 0 0 0-.9.6v.7l.1.6.4.5.5.1.5-.1.4-.5zm-.5-1.3.2.6v.1c0 .3 0 .5-.2.6 0 .2-.2.3-.4.3s-.3-.1-.4-.3a1 1 0 0 1-.2-.6v-.1c0-.3 0-.5.2-.6 0-.2.2-.2.4-.2s.3 0 .4.2z" />
        </symbol>
        <symbol id="icon-fourth-customer" viewBox="0 0 65 32">
            <path
                d="M10 10c-1.8 0-3.3 1.3-3.3 3 0 1.5 1.5 2.9 3.3 2.9 1.8 0 3.3-1.4 3.3-3s-1.5-3-3.3-3zM34.4 9c0-2.2-1-4.4-2.8-6S27.4.5 25 .5c-2.6 0-5 1-6.8 2.5s-2.8 3.8-2.8 6v12.5s19.1-2 19.1-12.5zM0 25.6c0 1.5.7 3 2 4.1a7.3 7.3 0 0 0 9.4 0c1.2-1 2-2.6 2-4.1v-8.7S0 18.2 0 25.6zM6.7 27c-.4 0-.7 0-1-.2l-.7-.7v-1c0-.3.2-.5.4-.7l1-.5 1 .1c.3.1.5.3.7.6a1.4 1.4 0 0 1-.2 2l-.6.3-.6.1zM20.1 26.3h-1.3v1.3h-.6v-3.3h2v.6h-1.4v.8h1.3v.6zm3.2-.3-.1.9c-.1.3-.3.4-.5.5-.2.2-.5.2-.7.2-.3 0-.5 0-.8-.2l-.4-.5a2 2 0 0 1-.2-.8v-.2c0-.3 0-.6.2-.9a1.3 1.3 0 0 1 1.2-.7c.2 0 .5 0 .7.2l.5.5.1.9v.1zm-.6-.1c0-.4 0-.6-.2-.8s-.3-.3-.5-.3c-.3 0-.4.1-.6.3l-.1.8v.1l.1.8c.1.2.3.3.6.3.2 0 .4-.1.5-.3l.2-.8V26zm2.8.8-.1-.3-.5-.2-.5-.2c-.4-.2-.6-.5-.6-.8l.1-.5.5-.3.6-.1.6.1.4.4.2.5h-.7l-.1-.4h-.8l-.1.3.1.3.5.2c.4 0 .7.2.8.4l.3.6c0 .3-.1.5-.3.7-.2.2-.5.2-.9.2l-.7-.1-.4-.4a1 1 0 0 1-.2-.5h.7c0 .3.2.5.6.5h.4l.1-.4zm3.6-1.8h-1v2.7h-.7v-2.7h-1v-.6h2.7v.6zm2.3 1.3h-1.3v.8h1.6v.6h-2.2v-3.3h2.1v.6h-1.5v.8h1.3v.5zm1.9.2h-.6v1.2H32v-3.3h1.3c.3 0 .6.1.8.3s.4.4.4.7c0 .2 0 .4-.2.6a1 1 0 0 1-.4.3l.7 1.4h-.7l-.6-1.2zm-.6-.5h.6c.1 0 .3 0 .3-.2l.2-.3-.1-.4-.4-.1h-.6v1zm4 .5v1.2h-.6v-3.3h1.3c.2 0 .4 0 .6.2.2 0 .3.2.4.4l.2.5c0 .3-.1.6-.3.8l-1 .2h-.5zm0-.5h.7l.4-.1.1-.4-.1-.4a.5.5 0 0 0-.4-.1h-.6v1zm4.3.3h-1.3v.8h1.5v.6h-2.1v-3.3h2.1v.6h-1.5v.8H41v.5zm3.1-1.3h-1v2.7h-.6v-2.7h-1v-.6H44v.6zm2.4 1.3h-1.3v.8h1.5v.6h-2.2v-3.3h2.2v.6h-1.5v.8h1.3v.5zm1.8.2h-.6v1.2h-.6v-3.3h1.2c.4 0 .7.1.9.3s.3.4.3.7c0 .2 0 .4-.2.6a1 1 0 0 1-.4.3l.7 1.4H49l-.6-1.2zm-.6-.5h.6c.2 0 .3 0 .4-.2l.1-.3-.1-.4-.4-.1h-.6v1zm4 .8s0-.2-.2-.3l-.4-.2-.6-.2c-.4-.2-.5-.5-.5-.8l.1-.5.4-.3.7-.1.6.1.4.4.2.5h-.7c0-.2 0-.3-.2-.4h-.7l-.2.3c0 .1 0 .2.2.3l.5.2c.3 0 .6.2.8.4s.2.4.2.6c0 .3 0 .5-.3.7-.2.2-.5.2-.8.2l-.7-.1-.5-.4a1 1 0 0 1-.1-.5h.6c0 .3.2.5.7.5h.3l.2-.4z" />
        </symbol>
        <symbol id="icon-instagram" viewBox="0 0 32 32">
            <path
                d="M32 9.4c-.1-1.7-.4-2.9-.8-3.9s-1-2-1.8-2.8A7.9 7.9 0 0 0 26.5.8c-1-.4-2.1-.6-3.8-.7A109.5 109.5 0 0 0 5.6.8c-1 .4-2 1-2.9 1.9C2 3.5 1.3 4.5 1 5.5.5 6.5.2 7.7.2 9.4a109.5 109.5 0 0 0 .7 17c.4 1.2 1 2.1 1.8 3 .8.7 1.8 1.4 2.9 1.8 1 .4 2.2.6 3.9.7a117.2 117.2 0 0 0 17-.7 8.2 8.2 0 0 0 4.7-4.7c.4-1 .7-2.2.8-3.9V9.4zm-3 13c0 1.6-.2 2.5-.5 3a5.3 5.3 0 0 1-3 3c-.6.3-1.4.6-3 .6a112.7 112.7 0 0 1-15.9-.5 5 5 0 0 1-1.8-1.2 5 5 0 0 1-1.2-1.9c-.2-.5-.5-1.4-.5-3a112.7 112.7 0 0 1 .5-15.8c.3-.7.7-1.3 1.2-1.9a5 5 0 0 1 1.8-1.1c.6-.3 1.5-.5 3-.6a112.7 112.7 0 0 1 15.9.6 5 5 0 0 1 1.8 1.1 5 5 0 0 1 1.2 1.9c.3.5.5 1.4.6 3a112.7 112.7 0 0 1 0 12.9z" />
            <path
                d="M16 7.8a8.2 8.2 0 1 0 0 16.4 8.2 8.2 0 0 0 0-16.4zm0 13.5a5.3 5.3 0 1 1 0-10.6 5.3 5.3 0 0 1 0 10.6zM26.5 7.5a2 2 0 1 1-3.8 0 2 2 0 0 1 3.8 0z" />
        </symbol>
        <symbol id="icon-linkedin" viewBox="0 0 32 32">
            <path
                d="M32 32V20.3c0-5.8-1.2-10.2-8-10.2a7 7 0 0 0-6.2 3.4h-.1v-2.9h-6.4V32H18V21.4c0-2.8.6-5.5 4-5.5s3.5 3.2 3.5 5.7V32H32zM.5 10.6h6.7V32H.5V10.6zM3.8 0C1.8 0 0 1.7 0 3.8s1.7 4 3.8 4c2.2 0 3.9-1.8 3.9-4C7.7 1.8 6 0 3.8 0z" />
        </symbol>
        <symbol id="icon-second-customer" viewBox="0 0 25 32">
            <path
                d="M10.5 1.8h-.7a14.2 14.2 0 0 0-.8 0c-2.3.1-4.5.7-6.5 1.7h-.3v13.7L3 17a23.3 23.3 0 0 1 6.7-1.2v1.8h-.7A20 20 0 0 0 .5 20V2.5A18.3 18.3 0 0 1 9.8 0h.2a18.1 18.1 0 0 1 3.2.4v1.8a14 14 0 0 0-2.2-.4h-.5zm3.1 1.8h1.2a19.4 19.4 0 0 0 9.3-2.3v17.1a18.3 18.3 0 0 1-12.7 2.1V3.3a14.3 14.3 0 0 0 2.2.3zm8.8.1-.7.3-1.7.5a21.1 21.1 0 0 1-6.3.6h-.5v14h.4a14.2 14.2 0 0 0 5.3-.5c1.1-.2 2.2-.6 3.2-1.1l.3-.1V3.7zM1.7 26a1 1 0 0 0-.7-.3 1 1 0 0 0-.4 0 1 1 0 0 0-.5.6V29.5l.2.3.4.2h.7a1 1 0 0 0 .5-.6V28.8h-.5v.4l-.2.1-.2.1a.3.3 0 0 1-.3-.1v-2.9h.1c.1 0 .1-.1.2 0 0-.1 0 0 .1 0h.2V27H2v-.3a1 1 0 0 0-.3-.7zM5.3 26A1 1 0 0 0 4 26a1 1 0 0 0-.2.3l-.1.4V29.4l.3.3.4.2a1 1 0 0 0 .7 0c.1 0 .2 0 .3-.2l.2-.3.1-.4V26.3a1 1 0 0 0-.3-.4zM5 29a.4.4 0 0 1-.1.3.4.4 0 0 1-.6 0 .4.4 0 0 1 0-.3v-2.3a.4.4 0 0 1 0-.3.4.4 0 0 1 .6 0 .4.4 0 0 1 .1.3V29zM10 30v-4.3h-.5L8.7 28l-.8-2.3h-.6V30H8v-2.6l.6 1.8h.3l.6-1.8V30h.6zM13.5 26l-.3-.2h-1.4V30h.6v-1.7h.3l.6-.1.3-.3.2-.4a3 3 0 0 0 0-1l-.3-.5zm-.3 1.3v.2l-.2.2h-.6v-1.4h.6l.2.2v.8zM16.4 25.7h-.5l-1 4.3h.6l.2-1h.8l.2 1h.6l-1-4.3zm-.6 2.8.3-1.6.3 1.6h-.6zM20.3 28.3l-1-2.6h-.5V30h.6v-2.6l1 2.6h.5v-4.3h-.6v2.6zM24 25.7l-.5 1.7-.5-1.7h-.7l.9 2.5V30h.6v-1.8l.8-2.5H24zM0 31.2h.3v.8h.2v-.8h.3V31H0v.2zM2.4 31l-.3 1h.2v-.2h.4l.1.2H3l-.3-1h-.3zm0 .6.2-.4v.4h-.2zM4.9 31.6H5v.1l-.2.1h-.2l-.1-.3c0-.2 0-.3.3-.3H5c.1 0 0 0 0 .1h.3c0-.2-.2-.3-.4-.3l-.4.1-.1.2c-.1 0 0 .1 0 .2l.1.4a.5.5 0 0 0 .4.1c.1 0 .3 0 .4-.2v-.3h-.4v.1zM7.3 31h-.2v1h.7v-.2h-.5V31zM9.4 31h-.2v1h.2v-1zM11.5 31.7 11 31h-.2v1h.2v-.7l.4.7h.2v-1h-.2v.7zM13.3 31.5h.5v-.1h-.5v-.2h.5V31h-.7v1h.8v-.2h-.6v-.3zM17.8 31.4h-.4V31h-.2v1h.2v-.4h.4v.4h.2v-1h-.2v.4zM19.6 31.5h.5v-.1h-.5v-.2h.6V31h-.7v1h.7v-.2h-.6v-.3zM22.2 31.5c.1 0 .2 0 .2-.2a.2.2 0 0 0 0-.2L22 31h-.4v1h.2v-.4h.2l.3.4h.2l-.1-.2-.2-.3zm-.2 0h-.2v-.3h.4v.1l-.2.1zM24 31.5h.6v-.1H24v-.2h.5V31h-.7v1h.7v-.2h-.5v-.3z" />
        </symbol>
        <symbol id="icon-sixth-customer" viewBox="0 0 67 32">
            <path
                d="M33.7 15.2a2 2 0 0 1-.4-1.4v-2c0-.7.1-1.1.4-1.5s.8-.5 1.5-.5c.6 0 1.1.2 1.4.5.3.3.4.7.4 1.2v.5h-1.2v-1c0-.1 0-.2-.2-.3a.7.7 0 0 0-.4-.1l-.4.1-.2.3v3.7l.3.2h.7l.2-.4v-1H37v.5c0 .4-.1.9-.4 1.3-.3.3-.7.4-1.4.4s-1.2-.1-1.5-.5zM38.6 15.2c-.3-.3-.5-.7-.5-1.4v-2.1c0-.6.2-1 .5-1.4s.8-.5 1.5-.5c.6 0 1.1.2 1.4.5.3.3.5.8.5 1.4v2.1c0 .7-.2 1.1-.5 1.4s-.8.5-1.4.5c-.7 0-1.2-.1-1.5-.5zm2-.5c.1-.2.2-.4.1-.6V10.8l-.3-.1h-.6l-.3.1-.1.6v2.7l.1.6.3.2h.6l.2-.2zM43.4 9.9h1.2l1 4 1-4h1.2v5.7H47l-.1-4-1 4h-.7l-1-4v4h-1l.2-5.7zM49.3 9.9h2c1 0 1.6.5 1.6 1.6 0 1-.5 1.6-1.7 1.6h-.7v2.5h-1.2V10zm1.7 2.5a1 1 0 0 0 .6-.2c.2-.2.2-.4.2-.7V11l-.1-.2h-.2l-.5-.2h-.5v1.8h.5zM54.7 9.9H56l1.3 5.7h-1.1l-.3-1.3h-1.1l-.3 1.3h-1.1l1.3-5.7zm1.1 3.8-.5-2.5-.4 2.5h.9zM58.4 9.9h.8l1.7 3.3V9.9h1v5.7H61l-1.7-3.4v3.4h-1V10zM64.2 13.5 63 9.9H64l.8 2.3.8-2.3h1.1l-1.3 3.6v2.1h-1.2v-2.1zM35.6 18.2v.3h-1v2.3h-.4v-2.3h-1v-.3h2.4zM38.7 20.8h-.4v-.1l-.4-.6h-1.3l-.3.6-.2.1h-.3l1.2-2.6h.5l1.2 2.6zm-2-1h1.1l-.5-1v-.3l-.1.1v.1l-.5 1.1zM40.8 20.5h.2a1.4 1.4 0 0 0 .4 0l.1-.1v-.6H41v-.3h.9v1a1.8 1.8 0 0 1-.8.3h-1l-.5-.4-.3-.4-.1-.5.1-.6.3-.4.5-.3a2 2 0 0 1 1 0 1.7 1.7 0 0 1 .5.1l.2.2v.1h-.5a1.5 1.5 0 0 0-.6-.1h-.4a1 1 0 0 0-.6.5v1l.2.3a1 1 0 0 0 .9.2zM44.6 20.5H46v.3h-1.7v-2.6h.4v2.3zM47.3 20.8h-.4v-2.6h.4v2.6zM48.8 18.2h.1l1.8 2V18h.3v2.7H50.7l-1.8-2v2h-.3v-2.6h.2zM54 18.2v.2h-1.4v1h1.2v.2h-1.2v.9h1.5v.3h-2v-2.6h2zM10.8 1.9 29 6.4V22l-18.3-4.5V2zM9.6.5v18l20.7 5V5.6L9.6.6z" />
            <path d="M20.7 31.8 0 26.7V8.8L20.7 14v17.9z" />
            <path
                d="M10 1.7 28 6l-7.6 6.7L2.2 8.3 10 1.7zM9.5.5 0 8.8 20.7 14l9.6-8.3L9.6.6zM21.9 30.8l8.4-7.3-8.4-2v9.3z" />
        </symbol>
        <symbol id="icon-smartphone" viewBox="0 0 20 32">
            <path
                d="M17 0H3a3 3 0 0 0-3 3v26a3 3 0 0 0 3 3h14a3 3 0 0 0 3-3V3a3 3 0 0 0-3-3zM3 2h14c.6 0 1 .4 1 1v21H2V3c0-.6.4-1 1-1zm14 28H3a1 1 0 0 1-1-1v-3h16v3c0 .6-.4 1-1 1z" />
            <path fill="#757575" d="M4.7 27.5c.4.3.4 1 0 1.3s-1 .4-1.4 0c-.4-.4-.4-1 0-1.3s1-.4 1.4 0z"
                style="fill:var(--color3, #757575)" />
        </symbol>
        <symbol id="icon-third-customer" viewBox="0 0 34 32">
            <path
                d="M5.6 31.3h.1l.2.2-.5.3-.7.1h-.6l-.4-.4-.4-.4a1.5 1.5 0 0 1 0-1.1l.4-.5.5-.3a2 2 0 0 1 1.2 0c.2 0 .3.2.5.3l-.2.1H5.3a1.3 1.3 0 0 0-.6-.2l-.4.1a1 1 0 0 0-.6.6l-.1.4v.5l.3.3.3.2H5a1 1 0 0 0 .6-.2zM10.4 30.5v.6l-.4.4-.5.3a2 2 0 0 1-1.2 0c-.2 0-.4-.2-.5-.3-.2-.1-.3-.3-.3-.4-.2-.4-.2-.8 0-1.2l.3-.4.5-.3a2 2 0 0 1 1.2 0l.5.3a1.3 1.3 0 0 1 .4 1zm-.4 0v-.4a1 1 0 0 0-.6-.6h-1a1 1 0 0 0-.3.2l-.2.4v.9a1 1 0 0 0 .5.5h1l.3-.2.2-.3.1-.5zM13.7 31h.1v-.1l1.1-1.7h.5v2.7H15v-2.2l-1 1.7h-.4l-1.1-1.7V32H12v-2.7h.4l1.2 1.7zM17.7 30.9v1h-.4v-2.7h1.4l.4.2c.1 0 .2.1.2.3v.3a.8.8 0 0 1-.2.6 1 1 0 0 1-.4.2h-1zm0-.3h.8l.3-.2.1-.2v-.4l-.1-.2a.9.9 0 0 0-.6-.2h-.5v1.2zM23.3 31.9h-.4v-.1l-.4-.7h-1.4l-.3.7a.2.2 0 0 1-.1 0h-.3l1.2-2.6h.4l1.3 2.7zm-2-1h1.1l-.5-1.1v-.3l-.1.1v.2l-.6 1zM25 29.2h.2l1.8 2V29h.3V32H27l-1.8-2.1V32h-.4v-2.7h.2zM30.4 30.8v1H30v-1l-1.2-1.6h.5l.8 1.1v.1l.1.1.1-.2.7-1v-.1H31.7l-1.2 1.6zM13.5 24.6h.6c2.8-1 5.1-2.8 6.8-5.1s2.5-4.9 2.4-7.5l-3-2.7c.5 2.8.2 5.7-1 8.4s-3.1 5.1-5.8 6.9z" />
            <path
                d="M12.4 24.5c3-1.8 5-4.2 6.3-7s1.4-6 .5-8.9l-4.4-3.8a16.4 16.4 0 0 1-2.4 19.7zM27.3 15.1c-.7 3-2.5 5.6-5.1 7.5l-2.5 1.6c2.1-.6 4-1.5 5.7-2.8s3-3 3.7-4.7L27.3 15z" />
            <path
                d="m26.6 14.7-2.5-2.2c0 2.5-.9 5-2.4 7s-3.7 4-6.2 5.2l1.7-.1c2.4-.9 4.5-2.2 6.1-4s2.8-3.7 3.3-6zM12.8 3.2 9.8.5C7 1.5 4.6 3 3 5.1S.5 9.7.5 12.1c0 2.9 1.1 5.6 3 7.8s4.8 3.7 8 4.4c2.7-3 4.4-6.6 4.6-10.4s-1-7.5-3.3-10.7zM33.6 14.3c0-3.3-1.5-6.5-4.2-8.8a15.8 15.8 0 0 0-15.3-2.9l18.6 16.1c.6-1.4 1-2.9 1-4.4z" />
        </symbol>
        <symbol id="icon-twitter" viewBox="0 0 32 32">
            <path
                d="M32 6c-1.2.6-2.5 1-3.8 1.1 1.4-.8 2.4-2 3-3.6-1.4.7-2.8 1.3-4.3 1.6a6.6 6.6 0 0 0-11.2 6A18.6 18.6 0 0 1 2.2 4.2a6.6 6.6 0 0 0 2 8.8c-1 0-2-.4-3-.8 0 3.2 2.4 5.9 5.3 6.5a6.5 6.5 0 0 1-3 0 6.6 6.6 0 0 0 6.2 4.6A13.2 13.2 0 0 1 0 26.1 18.5 18.5 0 0 0 28.7 9.5c1.3-1 2.4-2 3.3-3.4z" />
        </symbol>
        <symbol id="icon-modal-close-button" viewBox="0 0 32 32">
            <path
                d="M32 3.223l-3.223-3.223-12.777 12.777-12.777-12.777-3.223 3.223 12.777 12.777-12.777 12.777 3.223 3.223 12.777-12.777 12.777 12.777 3.223-3.223-12.777-12.777 12.777-12.777z">
            </path>
        </symbol>
        <symbol id="icon-check-form" viewBox="0 0 32 32">
            <path
                d="M4.817 15.389l-0.169-0.162-2.544 2.41 8.962 8.55 18.829-17.962-2.527-2.411-16.302 15.536-6.249-5.962z">
            </path>
        </symbol>
        <symbol id="icon-email-form" viewBox="0 0 32 32">
            <path
                d="M26.667 5.333h-21.333c-1.467 0-2.653 1.2-2.653 2.667l-0.013 16c0 1.467 1.2 2.667 2.667 2.667h21.333c1.467 0 2.667-1.2 2.667-2.667v-16c0-1.467-1.2-2.667-2.667-2.667zM26.133 11l-9.427 5.893c-0.427 0.267-0.987 0.267-1.413 0l-9.427-5.893c-0.333-0.213-0.533-0.573-0.533-0.96 0-0.893 0.973-1.427 1.733-0.96l8.933 5.587 8.933-5.587c0.76-0.467 1.733 0.067 1.733 0.96 0 0.387-0.2 0.747-0.533 0.96z">
            </path>
        </symbol>
        <symbol id="icon-icon-send" viewBox="0 0 32 32">
            <path
                d="M32 0l-32 18 10.227 3.788 15.773-14.788-11.998 16.186 0.010 0.004-0.012-0.004v8.814l5.735-6.691 7.265 2.691 5-28z">
            </path>
        </symbol>
        <symbol id="icon-person-form" viewBox="0 0 32 32">
            <path
                d="M16 16c2.947 0 5.333-2.387 5.333-5.333s-2.387-5.333-5.333-5.333c-2.947 0-5.333 2.387-5.333 5.333s2.387 5.333 5.333 5.333zM16 18.667c-3.56 0-10.667 1.787-10.667 5.333v1.333c0 0.733 0.6 1.333 1.333 1.333h18.667c0.733 0 1.333-0.6 1.333-1.333v-1.333c0-3.547-7.107-5.333-10.667-5.333z">
            </path>
        </symbol>
        <symbol id="icon-phone-form" viewBox="0 0 32 32">
            <path
                d="M24.882 19.773l-3.268-0.373c-0.785-0.090-1.557 0.18-2.11 0.733l-2.367 2.367c-3.641-1.853-6.626-4.825-8.478-8.478l2.38-2.38c0.553-0.553 0.823-1.325 0.733-2.11l-0.373-3.242c-0.154-1.299-1.248-2.277-2.56-2.277h-2.226c-1.454 0-2.663 1.209-2.573 2.663 0.682 10.987 9.469 19.761 20.443 20.443 1.454 0.090 2.663-1.119 2.663-2.573v-2.226c0.013-1.3-0.965-2.393-2.264-2.547z">
            </path>
        </symbol>
    </defs>
</svg>